<svg width="33" height="43" viewBox="0 0 33 43" fill="none" xmlns="http://www.w3.org/2000/svg">
<path d="M1.34279 11.5154L11.1899 5.28977V13.3058C11.1899 14.5297 12.2001 17.168 12.9257 18.8491C13.0551 19.1038 13.1695 19.3592 13.2651 19.6129C13.1645 19.3938 13.0492 19.1353 12.9257 18.8491C11.9093 16.8482 9.97179 14.8851 9.03331 14.0789L8.95193 8.58571C6.15241 9.7576 4.3132 12.5734 3.74353 13.8348C3.19123 17.7881 5.06376 19.5696 6.38842 20.1182C6.45428 20.1322 6.57814 20.1702 6.73763 20.239C6.77109 20.2482 6.8039 20.2565 6.83602 20.2639C6.92792 20.3173 7.01698 20.3702 7.10324 20.4225C7.17461 20.4635 7.24864 20.509 7.3243 20.5595C8.95963 21.5928 9.50027 22.4077 9.56228 22.7053C10.5063 23.7796 11.2306 24.0753 11.4747 24.0888L10.6202 26.4082C10.6745 26.9778 10.7504 28.931 10.6202 32.1862C10.49 35.4415 11.7867 38.2084 12.4513 39.185L1.87177 32.1862V26.9372C2.29495 24.8864 0.800248 21.7966 0 20.508C2.86462 23.6005 3.41801 25.3231 3.33663 25.7978C2.13219 30.0296 6.19853 33.2578 8.38226 34.3428C8.39582 32.7423 8.41481 29.0693 8.38226 27.1813C8.34157 24.8212 7.85328 25.4316 7.93466 24.0888C8.01604 22.746 5.08632 21.6474 3.74353 20.508C2.6693 19.5966 2.1566 18.7177 2.03453 18.3921L0.73243 17.5376L1.34279 16.1542V11.5154Z" fill="#F2F2F2"/>
<path d="M17.619 0C17.5713 0.0985238 17.5119 0.21106 17.4411 0.334445C17.0257 1.27485 17.0012 2.65808 17.0493 3.29594C16.9408 15.6794 16.7889 40.4057 17.0493 40.243C17.3098 40.0802 18.7855 39.0901 19.4908 38.6153C20.4348 37.7364 20.8064 35.4008 20.8743 34.3428V39.714L17.0493 42.1147L14.9741 40.7719V6.26635C14.7137 4.41086 14.1603 3.78422 13.9162 3.70284C15.6476 2.92368 16.8888 1.29817 17.4411 0.334445C17.4939 0.215009 17.553 0.102716 17.619 0Z" fill="#F2F2F2"/>
<path d="M22.9901 8.38211C23.0552 6.68939 21.5253 4.80134 20.7522 4.06891L32.1455 11.4339V15.9912C31.9828 16.6097 32.6474 17.9037 33 18.4734C30.9818 17.92 30.8841 16.8051 31.0876 16.3168C31.2503 15.503 30.6671 14.1602 30.3551 13.5905C29.3135 11.4746 26.5845 9.77916 25.3502 9.19592L25.635 15.4623C25.6676 17.0899 26.2183 18.392 26.4895 18.8396C27.401 19.7836 28.9038 20.6707 29.5413 20.9962C30.6807 21.6798 31.2368 22.4746 31.3724 22.7866C32.4953 24.0218 32.8919 24.2361 32.9798 24.1761L33 24.1294C33 24.1499 32.9939 24.1665 32.9798 24.1761L32.349 25.6349V31.9826L22.9901 38.0455V29.3378C22.8274 27.5799 22.1356 26.0011 21.8101 25.4315L19.9383 21.3217L18.27 16.6016C20.7115 23.1772 24.0074 26.937 25.3502 27.995V34.5461C28.5078 33.2115 29.8126 30.6805 30.0703 29.5819C30.2982 28.3449 29.9754 25.8655 29.7855 24.7804C29.8397 25.1738 29.9075 25.6919 29.7448 24.6176C29.582 23.5434 29.1344 22.9493 28.931 22.7866C28.0629 22.2033 26.1315 20.8985 25.3502 20.3451C24.5689 19.7917 23.9396 18.8667 23.7226 18.4734C23.4621 18.0502 22.529 17.5375 22.0949 17.334L23.1936 15.2181C23.3564 13.9486 23.1258 10.1318 22.9901 8.38211Z" fill="#F2F2F2"/>
</svg>
